SOL 105
CEND
TITLE = OpenJFEM bundled precompile SOL105 meshed plate (sparse-path coverage)
SUBCASE 1
  SPC = 1
  LOAD = 1
SUBCASE 2
  SPC = 1
  METHOD = 1
  STATSUB = 1
BEGIN BULK
PARAM,AUTOSPC,YES
GRID,1,,0.0,0.0,0.
GRID,2,,0.1,0.0,0.
GRID,3,,0.2,0.0,0.
GRID,4,,0.3,0.0,0.
GRID,5,,0.4,0.0,0.
GRID,6,,0.5,0.0,0.
GRID,7,,0.6,0.0,0.
GRID,8,,0.7,0.0,0.
GRID,9,,0.8,0.0,0.
GRID,10,,0.9,0.0,0.
GRID,11,,1.0,0.0,0.
GRID,12,,1.1,0.0,0.
GRID,13,,1.2,0.0,0.
GRID,14,,0.0,0.1,0.
GRID,15,,0.1,0.1,0.
GRID,16,,0.2,0.1,0.
GRID,17,,0.3,0.1,0.
GRID,18,,0.4,0.1,0.
GRID,19,,0.5,0.1,0.
GRID,20,,0.6,0.1,0.
GRID,21,,0.7,0.1,0.
GRID,22,,0.8,0.1,0.
GRID,23,,0.9,0.1,0.
GRID,24,,1.0,0.1,0.
GRID,25,,1.1,0.1,0.
GRID,26,,1.2,0.1,0.
GRID,27,,0.0,0.2,0.
GRID,28,,0.1,0.2,0.
GRID,29,,0.2,0.2,0.
GRID,30,,0.3,0.2,0.
GRID,31,,0.4,0.2,0.
GRID,32,,0.5,0.2,0.
GRID,33,,0.6,0.2,0.
GRID,34,,0.7,0.2,0.
GRID,35,,0.8,0.2,0.
GRID,36,,0.9,0.2,0.
GRID,37,,1.0,0.2,0.
GRID,38,,1.1,0.2,0.
GRID,39,,1.2,0.2,0.
GRID,40,,0.0,0.3,0.
GRID,41,,0.1,0.3,0.
GRID,42,,0.2,0.3,0.
GRID,43,,0.3,0.3,0.
GRID,44,,0.4,0.3,0.
GRID,45,,0.5,0.3,0.
GRID,46,,0.6,0.3,0.
GRID,47,,0.7,0.3,0.
GRID,48,,0.8,0.3,0.
GRID,49,,0.9,0.3,0.
GRID,50,,1.0,0.3,0.
GRID,51,,1.1,0.3,0.
GRID,52,,1.2,0.3,0.
GRID,53,,0.0,0.4,0.
GRID,54,,0.1,0.4,0.
GRID,55,,0.2,0.4,0.
GRID,56,,0.3,0.4,0.
GRID,57,,0.4,0.4,0.
GRID,58,,0.5,0.4,0.
GRID,59,,0.6,0.4,0.
GRID,60,,0.7,0.4,0.
GRID,61,,0.8,0.4,0.
GRID,62,,0.9,0.4,0.
GRID,63,,1.0,0.4,0.
GRID,64,,1.1,0.4,0.
GRID,65,,1.2,0.4,0.
GRID,66,,0.0,0.5,0.
GRID,67,,0.1,0.5,0.
GRID,68,,0.2,0.5,0.
GRID,69,,0.3,0.5,0.
GRID,70,,0.4,0.5,0.
GRID,71,,0.5,0.5,0.
GRID,72,,0.6,0.5,0.
GRID,73,,0.7,0.5,0.
GRID,74,,0.8,0.5,0.
GRID,75,,0.9,0.5,0.
GRID,76,,1.0,0.5,0.
GRID,77,,1.1,0.5,0.
GRID,78,,1.2,0.5,0.
GRID,79,,0.0,0.6,0.
GRID,80,,0.1,0.6,0.
GRID,81,,0.2,0.6,0.
GRID,82,,0.3,0.6,0.
GRID,83,,0.4,0.6,0.
GRID,84,,0.5,0.6,0.
GRID,85,,0.6,0.6,0.
GRID,86,,0.7,0.6,0.
GRID,87,,0.8,0.6,0.
GRID,88,,0.9,0.6,0.
GRID,89,,1.0,0.6,0.
GRID,90,,1.1,0.6,0.
GRID,91,,1.2,0.6,0.
GRID,92,,0.0,0.7,0.
GRID,93,,0.1,0.7,0.
GRID,94,,0.2,0.7,0.
GRID,95,,0.3,0.7,0.
GRID,96,,0.4,0.7,0.
GRID,97,,0.5,0.7,0.
GRID,98,,0.6,0.7,0.
GRID,99,,0.7,0.7,0.
GRID,100,,0.8,0.7,0.
GRID,101,,0.9,0.7,0.
GRID,102,,1.0,0.7,0.
GRID,103,,1.1,0.7,0.
GRID,104,,1.2,0.7,0.
GRID,105,,0.0,0.8,0.
GRID,106,,0.1,0.8,0.
GRID,107,,0.2,0.8,0.
GRID,108,,0.3,0.8,0.
GRID,109,,0.4,0.8,0.
GRID,110,,0.5,0.8,0.
GRID,111,,0.6,0.8,0.
GRID,112,,0.7,0.8,0.
GRID,113,,0.8,0.8,0.
GRID,114,,0.9,0.8,0.
GRID,115,,1.0,0.8,0.
GRID,116,,1.1,0.8,0.
GRID,117,,1.2,0.8,0.
GRID,118,,0.0,0.9,0.
GRID,119,,0.1,0.9,0.
GRID,120,,0.2,0.9,0.
GRID,121,,0.3,0.9,0.
GRID,122,,0.4,0.9,0.
GRID,123,,0.5,0.9,0.
GRID,124,,0.6,0.9,0.
GRID,125,,0.7,0.9,0.
GRID,126,,0.8,0.9,0.
GRID,127,,0.9,0.9,0.
GRID,128,,1.0,0.9,0.
GRID,129,,1.1,0.9,0.
GRID,130,,1.2,0.9,0.
GRID,131,,0.0,1.0,0.
GRID,132,,0.1,1.0,0.
GRID,133,,0.2,1.0,0.
GRID,134,,0.3,1.0,0.
GRID,135,,0.4,1.0,0.
GRID,136,,0.5,1.0,0.
GRID,137,,0.6,1.0,0.
GRID,138,,0.7,1.0,0.
GRID,139,,0.8,1.0,0.
GRID,140,,0.9,1.0,0.
GRID,141,,1.0,1.0,0.
GRID,142,,1.1,1.0,0.
GRID,143,,1.2,1.0,0.
GRID,144,,0.0,1.1,0.
GRID,145,,0.1,1.1,0.
GRID,146,,0.2,1.1,0.
GRID,147,,0.3,1.1,0.
GRID,148,,0.4,1.1,0.
GRID,149,,0.5,1.1,0.
GRID,150,,0.6,1.1,0.
GRID,151,,0.7,1.1,0.
GRID,152,,0.8,1.1,0.
GRID,153,,0.9,1.1,0.
GRID,154,,1.0,1.1,0.
GRID,155,,1.1,1.1,0.
GRID,156,,1.2,1.1,0.
GRID,157,,0.0,1.2,0.
GRID,158,,0.1,1.2,0.
GRID,159,,0.2,1.2,0.
GRID,160,,0.3,1.2,0.
GRID,161,,0.4,1.2,0.
GRID,162,,0.5,1.2,0.
GRID,163,,0.6,1.2,0.
GRID,164,,0.7,1.2,0.
GRID,165,,0.8,1.2,0.
GRID,166,,0.9,1.2,0.
GRID,167,,1.0,1.2,0.
GRID,168,,1.1,1.2,0.
GRID,169,,1.2,1.2,0.
CQUAD4,1,1,1,2,15,14
CQUAD4,2,1,2,3,16,15
CQUAD4,3,1,3,4,17,16
CQUAD4,4,1,4,5,18,17
CQUAD4,5,1,5,6,19,18
CQUAD4,6,1,6,7,20,19
CQUAD4,7,1,7,8,21,20
CQUAD4,8,1,8,9,22,21
CQUAD4,9,1,9,10,23,22
CQUAD4,10,1,10,11,24,23
CQUAD4,11,1,11,12,25,24
CQUAD4,12,1,12,13,26,25
CQUAD4,13,1,14,15,28,27
CQUAD4,14,1,15,16,29,28
CQUAD4,15,1,16,17,30,29
CQUAD4,16,1,17,18,31,30
CQUAD4,17,1,18,19,32,31
CQUAD4,18,1,19,20,33,32
CQUAD4,19,1,20,21,34,33
CQUAD4,20,1,21,22,35,34
CQUAD4,21,1,22,23,36,35
CQUAD4,22,1,23,24,37,36
CQUAD4,23,1,24,25,38,37
CQUAD4,24,1,25,26,39,38
CQUAD4,25,1,27,28,41,40
CQUAD4,26,1,28,29,42,41
CQUAD4,27,1,29,30,43,42
CQUAD4,28,1,30,31,44,43
CQUAD4,29,1,31,32,45,44
CQUAD4,30,1,32,33,46,45
CQUAD4,31,1,33,34,47,46
CQUAD4,32,1,34,35,48,47
CQUAD4,33,1,35,36,49,48
CQUAD4,34,1,36,37,50,49
CQUAD4,35,1,37,38,51,50
CQUAD4,36,1,38,39,52,51
CQUAD4,37,1,40,41,54,53
CQUAD4,38,1,41,42,55,54
CQUAD4,39,1,42,43,56,55
CQUAD4,40,1,43,44,57,56
CQUAD4,41,1,44,45,58,57
CQUAD4,42,1,45,46,59,58
CQUAD4,43,1,46,47,60,59
CQUAD4,44,1,47,48,61,60
CQUAD4,45,1,48,49,62,61
CQUAD4,46,1,49,50,63,62
CQUAD4,47,1,50,51,64,63
CQUAD4,48,1,51,52,65,64
CQUAD4,49,1,53,54,67,66
CQUAD4,50,1,54,55,68,67
CQUAD4,51,1,55,56,69,68
CQUAD4,52,1,56,57,70,69
CQUAD4,53,1,57,58,71,70
CQUAD4,54,1,58,59,72,71
CQUAD4,55,1,59,60,73,72
CQUAD4,56,1,60,61,74,73
CQUAD4,57,1,61,62,75,74
CQUAD4,58,1,62,63,76,75
CQUAD4,59,1,63,64,77,76
CQUAD4,60,1,64,65,78,77
CQUAD4,61,1,66,67,80,79
CQUAD4,62,1,67,68,81,80
CQUAD4,63,1,68,69,82,81
CQUAD4,64,1,69,70,83,82
CQUAD4,65,1,70,71,84,83
CQUAD4,66,1,71,72,85,84
CQUAD4,67,1,72,73,86,85
CQUAD4,68,1,73,74,87,86
CQUAD4,69,1,74,75,88,87
CQUAD4,70,1,75,76,89,88
CQUAD4,71,1,76,77,90,89
CQUAD4,72,1,77,78,91,90
CQUAD4,73,1,79,80,93,92
CQUAD4,74,1,80,81,94,93
CQUAD4,75,1,81,82,95,94
CQUAD4,76,1,82,83,96,95
CQUAD4,77,1,83,84,97,96
CQUAD4,78,1,84,85,98,97
CQUAD4,79,1,85,86,99,98
CQUAD4,80,1,86,87,100,99
CQUAD4,81,1,87,88,101,100
CQUAD4,82,1,88,89,102,101
CQUAD4,83,1,89,90,103,102
CQUAD4,84,1,90,91,104,103
CQUAD4,85,1,92,93,106,105
CQUAD4,86,1,93,94,107,106
CQUAD4,87,1,94,95,108,107
CQUAD4,88,1,95,96,109,108
CQUAD4,89,1,96,97,110,109
CQUAD4,90,1,97,98,111,110
CQUAD4,91,1,98,99,112,111
CQUAD4,92,1,99,100,113,112
CQUAD4,93,1,100,101,114,113
CQUAD4,94,1,101,102,115,114
CQUAD4,95,1,102,103,116,115
CQUAD4,96,1,103,104,117,116
CQUAD4,97,1,105,106,119,118
CQUAD4,98,1,106,107,120,119
CQUAD4,99,1,107,108,121,120
CQUAD4,100,1,108,109,122,121
CQUAD4,101,1,109,110,123,122
CQUAD4,102,1,110,111,124,123
CQUAD4,103,1,111,112,125,124
CQUAD4,104,1,112,113,126,125
CQUAD4,105,1,113,114,127,126
CQUAD4,106,1,114,115,128,127
CQUAD4,107,1,115,116,129,128
CQUAD4,108,1,116,117,130,129
CQUAD4,109,1,118,119,132,131
CQUAD4,110,1,119,120,133,132
CQUAD4,111,1,120,121,134,133
CQUAD4,112,1,121,122,135,134
CQUAD4,113,1,122,123,136,135
CQUAD4,114,1,123,124,137,136
CQUAD4,115,1,124,125,138,137
CQUAD4,116,1,125,126,139,138
CQUAD4,117,1,126,127,140,139
CQUAD4,118,1,127,128,141,140
CQUAD4,119,1,128,129,142,141
CQUAD4,120,1,129,130,143,142
CQUAD4,121,1,131,132,145,144
CQUAD4,122,1,132,133,146,145
CQUAD4,123,1,133,134,147,146
CQUAD4,124,1,134,135,148,147
CQUAD4,125,1,135,136,149,148
CQUAD4,126,1,136,137,150,149
CQUAD4,127,1,137,138,151,150
CQUAD4,128,1,138,139,152,151
CQUAD4,129,1,139,140,153,152
CQUAD4,130,1,140,141,154,153
CQUAD4,131,1,141,142,155,154
CQUAD4,132,1,142,143,156,155
CTRIA3,133,1,144,145,158
CTRIA3,134,1,144,158,157
CTRIA3,135,1,145,146,159
CTRIA3,136,1,145,159,158
CTRIA3,137,1,146,147,160
CTRIA3,138,1,146,160,159
CTRIA3,139,1,147,148,161
CTRIA3,140,1,147,161,160
CTRIA3,141,1,148,149,162
CTRIA3,142,1,148,162,161
CTRIA3,143,1,149,150,163
CTRIA3,144,1,149,163,162
CTRIA3,145,1,150,151,164
CTRIA3,146,1,150,164,163
CTRIA3,147,1,151,152,165
CTRIA3,148,1,151,165,164
CTRIA3,149,1,152,153,166
CTRIA3,150,1,152,166,165
CTRIA3,151,1,153,154,167
CTRIA3,152,1,153,167,166
CTRIA3,153,1,154,155,168
CTRIA3,154,1,154,168,167
CTRIA3,155,1,155,156,169
CTRIA3,156,1,155,169,168
PSHELL,1,1,0.02,1,,1
MAT1,1,7.0E10,2.6923E10,0.3,2700.
SPC1,1,123456,1
SPC1,1,123456,14
SPC1,1,123456,27
SPC1,1,123456,40
SPC1,1,123456,53
SPC1,1,123456,66
SPC1,1,123456,79
SPC1,1,123456,92
SPC1,1,123456,105
SPC1,1,123456,118
SPC1,1,123456,131
SPC1,1,123456,144
SPC1,1,123456,157
FORCE,1,13,0,-1000.,1.,0.,0.
FORCE,1,26,0,-1000.,1.,0.,0.
FORCE,1,39,0,-1000.,1.,0.,0.
FORCE,1,52,0,-1000.,1.,0.,0.
FORCE,1,65,0,-1000.,1.,0.,0.
FORCE,1,78,0,-1000.,1.,0.,0.
FORCE,1,91,0,-1000.,1.,0.,0.
FORCE,1,104,0,-1000.,1.,0.,0.
FORCE,1,117,0,-1000.,1.,0.,0.
FORCE,1,130,0,-1000.,1.,0.,0.
FORCE,1,143,0,-1000.,1.,0.,0.
FORCE,1,156,0,-1000.,1.,0.,0.
FORCE,1,169,0,-1000.,1.,0.,0.
EIGRL,1,0.,1.0E9,4
ENDDATA
